<svg width="124" height="27" viewBox="0 0 124 27" fill="none" xmlns="http://www.w3.org/2000/svg">
<path d="M16.0728 19.1214H16.1769C16.7671 19.1214 17.3919 19.0173 18.0862 18.7743C18.9888 18.4619 19.7872 18.0106 20.4815 17.3857C22.4602 15.7889 23.4322 13.4283 23.4322 10.2693C23.4322 8.15168 22.8074 6.48538 21.5577 5.27038C20.3427 4.1248 18.7111 3.53465 16.6976 3.53465C12.6013 3.53465 8.99104 4.8191 5.86674 7.38797C4.75588 8.29055 3.78387 9.29727 2.95073 10.4081C2.29115 11.2413 1.87458 11.9703 1.66629 12.5257C1.66629 12.5604 1.66629 12.5604 1.63158 12.5604C1.56215 12.5604 1.45801 12.491 1.31915 12.3174C1.14558 12.1439 0.937289 11.9356 0.763717 11.6925C0.277714 11.033 0 10.4775 0 9.95683C0 7.9781 1.80515 5.86053 5.45017 3.67352C9.1299 1.4518 12.7402 0.340942 16.2464 0.340942C19.0582 0.340942 21.3494 1.17408 23.1198 2.80566C24.9944 4.54138 25.897 6.83253 25.897 9.67912C25.897 12.3174 25.0985 14.7127 23.5017 16.7956C21.766 19.0867 19.5789 20.267 16.9406 20.267C16.1422 20.267 15.3785 20.1629 14.6495 19.9199L13.7469 19.4339C13.5733 19.3645 13.3651 19.2603 13.1915 19.1562C13.1915 19.295 13.1915 19.4339 13.1568 19.538L13.0873 19.8504C12.9138 20.7183 12.5666 21.3085 12.0112 21.6556C11.8376 21.7945 11.6293 21.8639 11.3863 21.9333L11.1086 21.968H10.692L10.3796 21.9333C10.0672 21.8639 9.78947 21.7598 9.58119 21.6209C8.99104 21.239 8.78275 20.5795 8.95633 19.6422C9.06047 19.0867 9.33819 18.6007 9.82419 18.1494C10.1366 17.8717 10.449 17.6634 10.7615 17.5593C10.7962 16.4832 10.8656 15.0946 11.0392 13.3589L11.2128 11.0677C11.2822 10.2345 11.2822 9.43612 11.2822 8.70712C11.2822 8.11697 11.2475 7.59625 11.2128 7.14497C11.1086 6.48539 10.9351 5.99939 10.7268 5.65225H11.3169L11.9418 5.68695C12.4278 5.75638 12.8443 5.89524 13.1915 6.0341C14.1288 6.48539 14.6148 7.31854 14.6148 8.60298C14.6148 8.67241 14.5454 9.12369 14.4065 9.92212L14.3023 10.5123L14.1982 11.1371C14.0941 11.6926 14.0246 12.1786 13.9552 12.5951C13.5733 14.7127 13.3651 16.3443 13.2956 17.5246C13.6428 18.1842 14.5801 18.7049 16.0728 19.1214ZM11.0045 21.2043C11.0739 20.9613 11.1433 20.3017 11.2475 19.1562C10.6573 19.2256 10.2755 19.5033 10.1713 20.0587C10.1019 20.4406 10.1713 20.7183 10.4143 20.9266C10.5185 20.996 10.6226 21.0655 10.7268 21.1349C10.7962 21.2043 10.8656 21.2043 10.935 21.2043H11.0045Z" fill="#404936"/>
<path d="M28.9866 19.5727C28.2923 19.5727 27.7369 19.3992 27.2856 19.0173C26.7996 18.6354 26.5913 18.1147 26.5913 17.4552C26.5913 16.622 26.9731 15.8583 27.7716 15.164C28.57 14.4697 29.5073 14.0878 30.6182 14.0878C30.7223 14.0878 30.8264 14.0878 30.9653 14.1226L31.0694 14.1573H31.243C31.3819 14.1573 31.4513 14.0531 31.4513 13.8796C31.4513 13.22 31 12.8728 30.0627 12.7687C29.6809 12.734 29.299 12.7687 28.8824 12.8034C28.5006 12.8728 28.1882 12.9076 27.9451 13.0117C27.841 13.0811 27.7369 13.0464 27.6327 12.977C27.5286 12.8728 27.4591 12.734 27.4591 12.5951C27.4591 12.005 27.598 11.519 27.841 11.1718C28.2229 10.6858 28.813 10.4775 29.6462 10.4775H30.2016C30.4446 10.5123 30.6529 10.547 30.8612 10.547C31.4166 10.6164 31.9026 10.7553 32.3539 10.9288C33.4995 11.4496 34.0896 12.3174 34.0896 13.5671C34.0549 13.8796 34.0202 14.2961 34.0202 14.8168C34.0202 15.5111 34.0202 16.136 34.0549 16.7261C34.1937 18.3924 34.5062 19.3297 34.9922 19.5727V19.7463C34.9922 19.8157 34.9922 19.8504 34.9575 19.8504C34.888 19.9546 34.6798 20.024 34.3673 20.024C34.1937 20.024 34.0549 19.9893 33.8813 19.9546C33.673 19.8852 33.4647 19.781 33.2912 19.6422C32.7705 19.2603 32.3886 18.6007 32.1803 17.7329C31.4166 18.9479 30.3404 19.5727 28.9866 19.5727ZM30.3057 17.8717C30.5834 17.8717 30.8612 17.8023 31.1736 17.6287C31.5207 17.4552 31.7637 17.2121 31.9373 16.9691C31.8679 16.865 31.8332 16.6914 31.8332 16.4832V15.8583C31.7984 15.3376 31.6943 15.0599 31.5207 15.0599C31.0694 15.0599 30.6182 15.2681 30.2016 15.7194C29.7503 16.1707 29.542 16.5873 29.542 17.0039C29.4726 17.594 29.7503 17.8717 30.3057 17.8717Z" fill="#404936"/>
<path d="M41.9003 11.6578C43.0459 12.6298 43.6361 13.8448 43.6361 15.3375C43.6361 16.3443 43.3583 17.2469 42.7682 18.0453C42.1433 18.9826 41.3102 19.4686 40.2688 19.4686C39.0885 19.4686 38.1859 19.052 37.561 18.2189C37.4222 19.1909 37.318 20.2323 37.2486 21.4126C37.1792 21.8292 37.1792 22.211 37.1792 22.5929C37.1444 22.8706 37.1445 23.0789 37.1445 23.183C37.1445 23.3566 37.1444 23.5302 37.1792 23.669C37.2486 23.8773 37.318 24.0509 37.4569 24.1897C36.8667 24.4674 36.3113 24.398 35.7212 24.0162C35.131 23.6343 34.8533 23.1483 34.888 22.5582L34.9574 21.1002L35.0269 19.6769C35.1657 17.9064 35.2352 16.2054 35.2352 14.5738V14.192L35.1657 13.706C35.0963 13.3241 34.9922 13.0464 34.8533 12.8728H35.131L35.3393 12.8381H35.5476C35.9642 12.8381 36.3113 12.8728 36.6237 12.9075C37.5263 13.1158 38.0123 13.6713 38.0123 14.6086C38.0123 14.8168 38.0123 14.9904 37.9776 15.0946L37.9429 15.3375L37.9082 15.65C37.8735 15.893 37.8387 16.1013 37.8387 16.3096C37.9082 16.7261 38.1165 17.108 38.4289 17.4204C38.8107 17.8023 39.1926 17.9759 39.6439 17.9759C40.1299 17.9759 40.5465 17.6981 40.8936 17.1427C41.1713 16.6567 41.2755 16.136 41.2755 15.5458C41.2755 14.678 40.8936 13.8795 40.1646 13.1505C39.4009 12.3521 38.5677 12.0397 37.5957 12.2132L37.2486 12.3174L36.9709 12.4215C36.7626 12.491 36.589 12.5257 36.4502 12.5257C36.4155 12.5257 36.3807 12.5257 36.2766 12.491C36.1725 12.4563 36.0683 12.4215 35.9989 12.3868C35.7906 12.248 35.6864 12.0744 35.6864 11.8661C35.6864 11.4495 35.8947 11.1024 36.2766 10.79C36.7626 10.4775 37.3875 10.304 38.1512 10.304C39.5745 10.3387 40.8242 10.7553 41.9003 11.6578Z" fill="#404936"/>
<path d="M52.5577 19.9893L52.037 20.024C51.6204 20.024 51.2733 19.9893 50.9608 19.9199C50.1624 19.7463 49.7111 19.2256 49.6764 18.3577C48.4614 19.5727 47.2811 20.1629 46.1355 20.1629H45.7884C45.6148 20.1282 45.4412 20.0587 45.3024 19.9546C44.8858 19.6422 44.7122 18.9826 44.7817 17.9759C44.8858 17.108 44.9552 16.4137 44.9899 15.9277C45.0941 14.8516 45.1635 14.1226 45.1635 13.6713C45.1635 13.0117 45.1288 12.4563 45.0594 11.9355C44.9899 11.5537 44.9205 11.2413 44.8164 10.9288L44.7122 10.6164L44.6081 10.3734C44.5387 10.1998 44.5039 10.0957 44.5039 10.0262C44.5039 9.85267 44.6081 9.74854 44.8511 9.74854C45.4412 9.74854 46.0314 10.0263 46.5868 10.5817C47.2117 11.2066 47.5241 12.0397 47.5241 13.0464C47.5241 14.8168 47.5241 15.9971 47.5588 16.5873C47.5935 17.2469 47.663 17.5593 47.8365 17.5593C48.0795 17.5593 48.4614 17.2469 49.0515 16.6567C49.2945 16.4484 49.5375 16.2054 49.7458 15.9624C49.9194 15.7194 50.093 15.5459 50.2318 15.3723C50.4054 14.6086 50.5095 13.8101 50.6137 13.0117C50.7178 12.248 50.7873 11.7273 50.7873 11.4843C50.7873 11.3107 50.7873 11.1371 50.7525 10.9635C50.6831 10.7553 50.6137 10.5817 50.4748 10.4428C51.065 10.1304 51.6204 10.1304 52.2105 10.4428C52.8007 10.79 53.0784 11.3454 53.0437 12.1091C53.0437 12.2827 53.009 12.5257 52.9743 12.8728L52.9396 13.3936L52.9048 13.9143C52.8354 14.8168 52.766 15.6153 52.7313 16.2748C52.6271 18.2883 52.7313 19.538 53.0784 20.024H52.5577V19.9893Z" fill="#404936"/>
<path d="M72.7962 19.1214H72.9004C73.4905 19.1214 74.1154 19.0173 74.8096 18.7743C75.7122 18.4619 76.5107 18.0106 77.2049 17.3857C79.1837 15.7889 80.1557 13.4283 80.1557 10.2693C80.1557 8.15168 79.5308 6.48538 78.2811 5.27038C77.0661 4.1248 75.4345 3.53465 73.4211 3.53465C69.3248 3.53465 65.7145 4.8191 62.5902 7.38797C61.4793 8.29055 60.5073 9.29727 59.6741 10.4081C59.0146 11.2413 58.598 11.9703 58.3897 12.5257C58.3897 12.5604 58.3897 12.5604 58.355 12.5604C58.2856 12.5604 58.1814 12.491 58.0426 12.3174C57.869 12.1439 57.6607 11.9356 57.4871 11.6925C57.0011 11.033 56.7234 10.4775 56.7234 9.95683C56.7234 7.9781 58.5286 5.86053 62.1736 3.67352C65.8533 1.4518 69.4636 0.340942 72.9698 0.340942C75.7816 0.340942 78.0728 1.17408 79.8432 2.80566C81.7178 4.54138 82.6204 6.83253 82.6204 9.67912C82.6204 12.3174 81.822 14.7127 80.2251 16.7956C78.4894 19.0867 76.3024 20.267 73.6641 20.267C72.8656 20.267 72.1019 20.1629 71.3729 19.9199L70.4703 19.4339C70.2968 19.3645 70.0885 19.2603 69.9149 19.1562C69.9149 19.295 69.9149 19.4339 69.8802 19.538L69.8108 19.8504C69.6372 20.7183 69.29 21.3085 68.7346 21.6556C68.561 21.7945 68.3528 21.8639 68.1098 21.9333L67.832 21.968H67.346L67.0336 21.9333C66.7212 21.8639 66.4435 21.7598 66.2352 21.6209C65.645 21.239 65.4367 20.5795 65.6103 19.6422C65.7145 19.0867 65.9922 18.6007 66.4782 18.1494C66.7906 17.8717 67.103 17.6634 67.4155 17.5593C67.4502 16.4832 67.5196 15.0946 67.6932 13.3589L67.8668 11.0677C67.9362 10.2345 67.9362 9.43612 67.9362 8.70712C67.9362 8.11697 67.9015 7.59625 67.8668 7.14497C67.7626 6.48539 67.589 5.99939 67.3807 5.65225H67.9709L68.5958 5.68695C69.0818 5.75638 69.4983 5.89524 69.8455 6.0341C70.7828 6.48539 71.2688 7.31854 71.2688 8.60298C71.2688 8.67241 71.1993 9.12369 71.0605 9.92212L70.9563 10.5123L70.8522 11.1371C70.748 11.6926 70.6786 12.1786 70.6092 12.5951C70.2273 14.7127 70.0191 16.3443 69.9496 17.5246C70.3662 18.1842 71.3035 18.7049 72.7962 19.1214ZM67.7279 21.2043C67.7973 20.9613 67.8668 20.3017 67.9709 19.1562C67.3808 19.2256 66.9989 19.5033 66.8947 20.0587C66.8253 20.4406 66.8948 20.7183 67.1378 20.9266C67.2419 20.996 67.346 21.0655 67.4502 21.1349C67.5196 21.2043 67.589 21.2043 67.6585 21.2043H67.7279Z" fill="#404936"/>
<path d="M88.5566 19.9893C88.5913 19.5727 88.626 19.1908 88.6607 18.8784C87.8623 19.5727 86.9944 19.8851 86.1613 19.8851C84.5991 19.8851 83.766 18.7743 83.5924 16.5872C83.523 15.893 83.523 14.9904 83.5924 13.8101L83.6618 13.1505L83.6965 12.5257C83.7313 12.0397 83.7313 11.6925 83.7313 11.4148C83.7313 11.0676 83.7313 10.8246 83.6965 10.6511C83.6271 10.1651 83.5577 9.81794 83.4536 9.54022H83.8007L84.2867 9.50549C84.7033 9.50549 85.0504 9.5402 85.3628 9.60963C86.196 9.81792 86.6126 10.3386 86.6126 11.1718C86.5431 11.5536 86.439 11.9355 86.3696 12.3868L86.2654 12.9769L86.196 13.5671C85.9183 14.921 85.7794 16.1707 85.7794 17.351C85.7794 17.9758 85.9877 18.2882 86.3696 18.2882C87.168 18.2882 87.7929 17.8717 88.2441 17.0732C88.626 16.3789 88.7996 15.5111 88.7996 14.5738V14.1919L88.7301 13.706C88.6607 13.3241 88.5566 13.0117 88.4177 12.8381H88.7996L89.2856 12.8034C89.7021 12.8034 90.0493 12.8381 90.2923 12.9075C91.0907 13.1158 91.5073 13.6712 91.5073 14.5738C91.5767 14.7474 91.5073 15.3028 91.4032 16.3095L91.3337 17.0038L91.2296 17.5592L91.1949 17.9411L91.1254 18.7395C91.4726 18.566 91.785 18.3924 92.0974 18.1841C92.3404 18.0452 92.5835 17.9064 92.8612 17.6981L93.486 17.3162C93.5555 17.3857 93.5902 17.4898 93.5902 17.6287C93.5902 18.0105 92.7223 18.8437 90.9519 20.0587L90.8477 20.996L90.7436 21.9333C90.6742 22.6275 90.6047 23.3219 90.5353 23.9467C90.5006 24.398 90.3964 24.8493 90.2229 25.2659C89.841 26.1337 89.2509 26.5503 88.4524 26.5503C87.7581 26.5503 87.168 26.2031 86.6126 25.5436C86.1266 24.884 85.8488 24.2244 85.8488 23.4954C85.8488 22.5928 86.2307 21.7597 86.9944 21.0654C87.2721 20.7877 87.5499 20.5794 87.897 20.3711C88.0359 20.3017 88.1747 20.1976 88.3136 20.1281L88.5219 20.024L88.5566 19.9893ZM88.383 23.0441L88.4524 22.454L88.5219 21.7944C87.9317 22.2804 87.6193 22.7664 87.6193 23.2871C87.6193 23.669 87.8276 23.9814 88.2094 24.2591C88.2789 23.9467 88.3483 23.5648 88.383 23.0441Z" fill="#404936"/>
<path d="M92.8264 16.7609C93 15.4417 93.0694 14.3656 93.0694 13.4977C93.0694 12.977 93.0347 12.491 92.9653 12.0744C92.8959 11.762 92.7917 11.4843 92.6876 11.2066L92.514 10.9289L92.4099 10.6859C92.3404 10.5123 92.3057 10.4081 92.3057 10.3734C92.3057 10.1998 92.4446 10.0957 92.7223 10.0957C93.3124 10.0957 93.8679 10.3387 94.458 10.8594C95.1176 11.4843 95.43 12.2827 95.43 13.2547L95.187 17.351C95.187 17.4552 95.187 17.5593 95.2217 17.6287C95.2912 17.837 95.3606 17.9412 95.4994 17.9412C95.7772 17.9412 96.2632 17.5593 96.9575 16.8303C97.5823 16.136 97.9642 15.65 98.0683 15.3029C98.1378 14.678 98.1725 14.0531 98.1725 13.4283C98.1725 12.5257 98.0336 11.7967 97.7906 11.1718L97.617 10.8941L97.5129 10.6511C97.4435 10.5123 97.4087 10.4428 97.4087 10.3734C97.4087 10.1998 97.5476 10.0957 97.8253 10.0957C98.4155 10.0957 98.9709 10.3387 99.561 10.8594C100.221 11.4843 100.533 12.2827 100.533 13.2547L100.29 17.351V17.4552L100.325 17.6634C100.394 17.837 100.533 17.9412 100.707 17.9412H100.811L100.984 17.8717C101.158 17.8023 101.297 17.7329 101.505 17.594C101.991 17.2122 102.477 16.5526 102.963 15.6153C103.241 14.8169 103.38 14.0184 103.484 13.1853C103.484 12.9076 103.484 12.6646 103.484 12.3521V11.8314C103.484 11.6579 103.484 11.4843 103.449 11.3107C103.38 11.1024 103.31 10.9288 103.171 10.79L103.241 10.7553L103.414 10.7206C103.484 10.6858 103.727 10.6859 104.109 10.6859C104.49 10.6859 104.838 10.8594 105.185 11.1718C105.567 11.5537 105.74 11.9703 105.74 12.4563C105.775 12.8034 105.74 13.3936 105.671 14.2267L105.636 14.7822L105.601 15.3723L105.497 16.5873C105.358 18.6007 105.462 19.8505 105.81 20.3365H104.907C104.213 20.3365 103.692 20.2323 103.345 20.0588C102.859 19.8158 102.546 19.3992 102.477 18.7743C101.262 19.9893 100.151 20.5795 99.1098 20.5795H99.0056L98.832 20.5447C98.6585 20.51 98.4849 20.4406 98.346 20.3018C97.9642 19.9546 97.7559 19.295 97.7559 18.323C97.1657 18.9826 96.6103 19.4686 96.0896 19.8157C95.3606 20.3018 94.6316 20.5795 93.972 20.5795C93.0694 20.6489 92.6182 19.9199 92.6529 18.4619C92.6876 17.7329 92.7917 17.1427 92.8264 16.7609Z" fill="#404936"/>
<path d="M111.85 10.3734C112.614 10.3734 113.239 10.79 113.725 11.6231C114.176 12.3521 114.384 13.1506 114.384 14.0184C114.384 16.4137 113.794 18.0453 112.579 18.9479C112.197 19.2256 111.711 19.4339 111.19 19.538C111.017 19.5727 110.809 19.6075 110.635 19.6075H110.288C109.246 19.6075 108.378 19.1562 107.684 18.2883C107.059 17.4899 106.747 16.4831 106.747 15.3376C106.747 14.0184 107.129 12.8034 107.892 11.7273C108.17 11.276 108.552 10.8594 109.038 10.4428C109.246 10.2345 109.524 10.2345 109.906 10.4428C110.253 10.6164 110.496 10.8594 110.6 11.2066C110.913 10.6164 111.295 10.3734 111.85 10.3734ZM112.996 14.1573C112.996 14.435 112.891 14.6433 112.718 14.7821C112.579 14.8863 112.44 14.9557 112.232 14.9557C111.538 14.9557 111.017 14.6433 110.67 14.0184C110.531 13.7754 110.461 13.5324 110.392 13.2547C110.323 13.0117 110.323 12.8034 110.323 12.6298C109.593 13.3588 109.212 14.2961 109.212 15.407V15.6153C109.212 15.7542 109.212 15.8583 109.246 15.9624C109.281 16.2749 109.35 16.5526 109.455 16.8303C109.732 17.594 110.253 17.9412 111.017 17.837H111.052L111.121 17.8023C111.225 17.8023 111.329 17.7676 111.399 17.7329C111.676 17.6287 111.919 17.4552 112.162 17.2122C112.857 16.4832 113.239 15.3376 113.239 13.7407C113.239 13.1853 113.204 12.7687 113.134 12.4563C112.996 12.0744 112.822 11.8314 112.544 11.7967C112.336 11.7967 112.197 11.9008 112.128 12.0744C112.058 12.248 112.024 12.4216 112.058 12.6646C112.128 13.2547 112.301 13.5324 112.648 13.5324C112.857 13.6366 112.996 13.8449 112.996 14.1573Z" fill="#404936"/>
<path d="M123.479 19.9893L122.959 20.024C122.542 20.024 122.195 19.9893 121.882 19.9198C121.084 19.7463 120.633 19.2256 120.598 18.3577C119.383 19.5727 118.203 20.1629 117.057 20.1629H116.71C116.536 20.1281 116.363 20.0587 116.224 19.9546C115.807 19.6421 115.634 18.9826 115.703 17.9758C115.807 17.108 115.877 16.4137 115.912 15.9277C116.016 14.8515 116.085 14.1225 116.085 13.6712C116.085 13.0117 116.05 12.4562 115.981 11.9355C115.912 11.5537 115.842 11.2413 115.738 10.9288L115.634 10.6164L115.53 10.3734C115.46 10.1998 115.426 10.0957 115.426 10.0262C115.426 9.85266 115.53 9.74852 115.773 9.74852C116.363 9.74852 116.953 10.0262 117.508 10.5817C118.133 11.2065 118.446 12.0397 118.446 13.0464C118.446 14.8168 118.446 15.9971 118.48 16.5873C118.515 17.2468 118.585 17.5593 118.758 17.5593C119.001 17.5593 119.383 17.2468 119.973 16.6567C120.216 16.4484 120.459 16.2054 120.667 15.9624C120.841 15.7194 121.015 15.5458 121.153 15.3723C121.327 14.6085 121.431 13.8101 121.535 13.0117C121.639 12.248 121.709 11.7272 121.709 11.4842C121.709 11.3107 121.709 11.1371 121.674 10.9635C121.605 10.7552 121.535 10.5817 121.396 10.4428C121.987 10.1304 122.542 10.1304 123.132 10.4428C123.722 10.79 124 11.3454 123.965 12.1091C123.965 12.2827 123.931 12.5257 123.896 12.8728L123.861 13.3935L123.826 13.9143C123.757 14.8168 123.688 15.6153 123.653 16.2748C123.549 18.2883 123.653 19.538 124 20.024H123.479V19.9893ZM121.709 8.63765C121.292 8.9848 120.841 9.15837 120.32 9.15837C119.834 9.15837 119.348 8.98481 118.828 8.67238L118.55 8.49881L118.272 8.32524C118.064 8.22109 117.89 8.15166 117.717 8.15166C117.543 8.15166 117.37 8.22108 117.196 8.39465C117.127 8.46408 117.092 8.49879 117.092 8.56822L117.057 8.60295V8.63765C116.779 8.63765 116.675 8.53351 116.675 8.29051C116.675 7.63094 117.127 7.2838 117.994 7.2838C118.272 7.24909 118.619 7.28379 119.071 7.31851L119.557 7.35322C119.73 7.38793 119.869 7.38794 119.938 7.38794C120.043 7.38794 120.147 7.38793 120.251 7.35322C120.39 7.28379 120.529 7.21437 120.633 7.11023C120.945 6.86723 121.153 6.48536 121.223 5.92993L121.258 5.96464C121.327 5.96464 121.362 5.99936 121.431 6.03407C121.57 6.13821 121.674 6.24237 121.778 6.34651C121.952 6.52008 122.091 6.69365 122.16 6.86723C122.264 7.0408 122.334 7.24908 122.334 7.42265C122.334 7.90865 122.125 8.29051 121.709 8.63765Z" fill="#404936"/>
</svg>
