<svg width="62" height="64" viewBox="0 0 62 64" fill="none" xmlns="http://www.w3.org/2000/svg">
<path d="M39.014 52.814C39.014 52.814 41.2791 52.9536 42.0704 56.2272C42.0704 56.2272 42.3031 58.5388 43.8701 58.7716C42.753 59.0043 42.2876 59.4697 42.21 59.9041C41.093 58.6785 40.7516 57.1736 40.612 56.3047C40.4724 55.3273 39.2312 53.8069 39.2312 53.8069L39.014 52.814Z" fill="#E5880E"/>
<path d="M34.499 50.5179C34.499 50.5179 39.0293 49.6491 40.9065 52.6589C43.4199 56.6772 46.3832 56.3048 48.307 55.4981C47.0503 56.6461 46.9417 57.9183 46.9417 57.9183C46.9417 57.9183 42.4425 57.9649 40.5963 54.7999C39.4016 53.2174 38.4087 52.9071 38.4087 52.9071L34.499 50.5179Z" fill="#E8AE08"/>
<path d="M34.4217 50.2851L36.7954 41.5349" stroke="#404936" stroke-width="0.396196" stroke-miterlimit="10"/>
<path d="M38.7968 60.4161H27.1764C26.8351 60.4161 26.5713 60.1369 26.5713 59.8111V50.9988H39.4174V59.7955C39.4174 60.1369 39.1381 60.4161 38.7968 60.4161Z" fill="#61664A"/>
<path d="M22.5686 40.573L30.2173 50.735" stroke="#404936" stroke-width="0.396196" stroke-miterlimit="10"/>
<path d="M44.0252 40.573L36.3921 50.735" stroke="#404936" stroke-width="0.396196" stroke-miterlimit="10"/>
<path d="M32.1876 50.2851L29.8139 41.5349" stroke="#404936" stroke-width="0.396196" stroke-miterlimit="10"/>
<path d="M55.7077 21.4901C55.7077 32.1641 49.1606 40.9454 40.7827 41.9693C46.7558 38.6182 50.9602 30.7213 50.9602 21.4901C50.9602 12.2744 46.7558 4.36201 40.7827 1.01086C49.1606 2.05034 55.7077 10.8161 55.7077 21.4901Z" fill="#404936"/>
<path d="M25.6405 41.9693C17.2626 40.9454 10.7155 32.1641 10.7155 21.4901C10.7155 10.8161 17.2626 2.03483 25.6405 1.01086C19.6674 4.36201 15.4629 12.2744 15.4629 21.4901C15.4629 30.7213 19.6674 38.6182 25.6405 41.9693Z" fill="#404936"/>
<path d="M32.6686 3.02772C32.6686 0.886708 30.512 -0.556147 28.5107 0.235096C27.9521 0.4523 27.3936 0.716047 26.8506 1.02634C20.8775 4.37749 16.673 12.2899 16.673 21.5056C16.673 30.7212 20.8775 38.6337 26.8506 41.9848C27.3936 42.2796 27.9366 42.5433 28.5107 42.7761C30.4965 43.5673 32.6686 42.1244 32.6686 39.9834V3.02772Z" fill="#547147"/>
<path d="M28.1228 48.1286C27.2695 50.3937 32.6375 51.1229 32.6375 51.1229C32.6375 51.1229 32.4359 53.9466 33.0564 50.8281C33.677 47.7097 31.8153 45.3825 31.1792 45.1033C30.5431 44.793 28.9761 45.848 28.1228 48.1286ZM31.8308 47.3374C32.3738 47.8804 32.9634 49.9593 32.9634 49.9593L32.7772 50.5489C32.7772 50.5489 29.5036 49.556 29.938 48.7027C30.3724 47.8493 31.3033 46.7944 31.8308 47.3374Z" fill="#E5880E"/>
<path d="M39.6656 1.01084C39.1226 0.716059 38.5796 0.452311 38.0056 0.219593C36.0197 -0.57165 33.8477 0.871205 33.8477 3.01222V39.9679C33.8477 42.1089 36.0042 43.5518 38.0056 42.7606C38.5641 42.5433 39.1226 42.2796 39.6656 41.9693C45.6387 38.6182 49.8432 30.7212 49.8432 21.4901C49.8432 12.2744 45.6387 4.3775 39.6656 1.01084Z" fill="#547147"/>
<path d="M33.615 51.6504H32.3583V60.4472H33.615V51.6504Z" fill="white"/>
<path d="M39.4279 56.1958V54.9391H26.4732V56.1958H39.4279Z" fill="white"/>
<path d="M34.763 44.9791C32.3427 44.7619 33.1029 50.1299 33.1029 50.1299C33.1029 50.1299 30.3258 50.7039 33.5063 50.4557C36.6713 50.2075 38.4089 47.7872 38.5175 47.1046C38.6261 46.4219 37.1833 45.1963 34.763 44.9791ZM36.5317 48.3612C36.1593 49.0284 34.3131 50.1609 34.3131 50.1609L33.708 50.1454C33.708 50.1454 33.7856 46.7167 34.7165 46.9184C35.6473 47.1046 36.904 47.6941 36.5317 48.3612Z" fill="#E8AE08"/>
<path opacity="0.64" d="M26.5713 51.6969L39.4174 51.6814V52.4882L26.5713 52.0382V51.6969Z" fill="#61664A"/>
<path opacity="0.32" d="M33.0254 64C38.8605 64 43.5908 63.7499 43.5908 63.4415C43.5908 63.133 38.8605 62.8829 33.0254 62.8829C27.1903 62.8829 22.46 63.133 22.46 63.4415C22.46 63.7499 27.1903 64 33.0254 64Z" fill="#506C44"/>
<path d="M39.6967 51.6969H26.2766C26.0904 51.6969 25.9352 51.5418 25.9352 51.3556V50.3937C25.9352 50.2075 26.0904 50.0524 26.2766 50.0524H39.6967C39.8828 50.0524 40.038 50.2075 40.038 50.3937V51.3556C40.038 51.5418 39.8828 51.6969 39.6967 51.6969Z" fill="#3E432F"/>
<path d="M33.8321 50.0524H32.1721V51.6969H33.8321V50.0524Z" fill="white"/>
<path d="M50.7275 42.5744L50.9137 43.4277C50.9292 43.4897 50.9602 43.5363 51.0223 43.5518L51.829 43.8776C51.9687 43.9397 51.9842 44.1103 51.8446 44.1879L51.0843 44.6223C51.0378 44.6533 51.0068 44.6999 50.9913 44.7619L50.9292 45.6308C50.9137 45.7704 50.743 45.848 50.6344 45.7549L49.9828 45.1808C49.9363 45.1498 49.8742 45.1343 49.8277 45.1343L48.9744 45.336C48.8347 45.367 48.7106 45.2274 48.7727 45.0877L49.1295 44.281C49.145 44.2344 49.145 44.1724 49.114 44.1258L48.6485 43.3811C48.571 43.257 48.6641 43.1019 48.8192 43.1174L49.688 43.2105C49.7501 43.2105 49.7966 43.195 49.8432 43.1484L50.4017 42.4813C50.5258 42.3882 50.6965 42.4347 50.7275 42.5744Z" fill="#E8AE08"/>
<path d="M15.1681 44.2344L15.9594 44.6068C16.0059 44.6378 16.068 44.6223 16.13 44.6068L16.8902 44.1724C17.0144 44.0948 17.1695 44.2034 17.154 44.343L17.0454 45.2118C17.0454 45.2739 17.0609 45.3204 17.1074 45.367L17.759 45.9565C17.8677 46.0496 17.8211 46.2358 17.6815 46.2668L16.8282 46.422C16.7661 46.4375 16.7196 46.4685 16.7041 46.5306L16.3472 47.3218C16.2852 47.4614 16.099 47.4614 16.0369 47.3373L15.618 46.5771C15.587 46.5306 15.5405 46.4995 15.4784 46.484L14.6096 46.3909C14.47 46.3754 14.4079 46.2048 14.501 46.0962L15.1061 45.4601C15.1526 45.4135 15.1681 45.367 15.1526 45.3049L14.9664 44.4516C14.8889 44.2965 15.0285 44.1724 15.1681 44.2344Z" fill="#E8AE08"/>
<path d="M2.29099 21.9865L2.35305 22.8554C2.35305 22.9174 2.38408 22.964 2.44614 22.995L3.20635 23.4449C3.33047 23.5225 3.31496 23.7087 3.19084 23.7552L2.38408 24.081C2.33754 24.0965 2.29099 24.1431 2.27548 24.2051L2.0893 25.0584C2.05827 25.1981 1.8721 25.2446 1.77901 25.136L1.22049 24.4689C1.18946 24.4223 1.1274 24.4068 1.06534 24.4068L0.196526 24.4844C0.056895 24.4999 -0.0517056 24.3448 0.0258673 24.2206L0.491304 23.4759C0.522334 23.4294 0.522332 23.3673 0.506818 23.3208L0.165497 22.514C0.103439 22.3744 0.227556 22.2348 0.367187 22.2813L1.22049 22.4985C1.28255 22.514 1.32909 22.4985 1.37563 22.452L2.02725 21.8779C2.10482 21.7693 2.27548 21.8469 2.29099 21.9865Z" fill="#E8AE08"/>
<path d="M59.2605 12.0728L59.9277 12.6468C59.9742 12.6778 60.0363 12.6934 60.0828 12.6778L60.9361 12.4606C61.0757 12.4296 61.1999 12.5692 61.1378 12.6934L60.7965 13.5001C60.781 13.5467 60.781 13.6087 60.812 13.6553L61.2774 14.4C61.355 14.5241 61.2619 14.6792 61.1068 14.6637L60.2379 14.5861C60.1759 14.5861 60.1293 14.6016 60.0828 14.6482L59.5243 15.3153C59.4312 15.4239 59.245 15.3774 59.214 15.2377L59.0123 14.3844C58.9968 14.3224 58.9657 14.2758 58.9037 14.2603L58.0969 13.9345C57.9573 13.888 57.9418 13.7018 58.0659 13.6242L58.8106 13.1743C58.8572 13.1433 58.8882 13.0967 58.8882 13.0347L58.9347 12.1659C58.9813 12.0417 59.1519 11.9797 59.2605 12.0728Z" fill="#E8AE08"/>
<path opacity="0.33" d="M49.9207 21.49C49.9207 20.5436 49.8742 19.6128 49.7811 18.6819C47.516 31.5745 34.7165 35.9961 33.9407 36.2599V39.9524C33.9407 42.0934 36.0973 43.5362 38.0986 42.745C38.6572 42.5278 39.2157 42.264 39.7587 41.9537C45.7318 38.6181 49.9207 30.7212 49.9207 21.49Z" fill="#547147"/>
<path opacity="0.33" d="M55.6301 23.507C53.7374 29.2473 48.7417 34.2896 46.942 35.9652C45.2819 38.5561 43.1719 40.6195 40.7827 41.9693C48.6175 41.0074 54.8544 33.2501 55.6301 23.507Z" fill="#404936"/>
<path opacity="0.33" d="M32.7617 28.301C32.6065 30.2869 31.2567 33.7466 26.8661 34.7861C22.491 35.8256 18.4107 30.442 18.0073 29.899C19.6674 35.3446 22.9099 39.7198 26.9592 41.9849C27.5022 42.2797 28.0452 42.5434 28.6193 42.7761C30.6051 43.5674 32.7772 42.1245 32.7772 39.9835V28.301H32.7617Z" fill="#547147"/>
<path opacity="0.33" d="M16.9678 37.5943C19.3881 39.999 22.3669 41.566 25.625 41.9694C21.1878 39.487 17.728 34.4758 16.2386 28.301C17.0299 32.49 17.0299 35.9652 16.9678 37.5943Z" fill="#404936"/>
<path opacity="0.39" d="M28.6038 0.235096C28.0452 0.4523 27.4867 0.716047 26.9437 1.02634C22.2428 3.66382 18.6589 9.10943 17.3247 15.7807C18.5193 12.6623 22.6151 4.70329 32.7462 6.50298V3.02772C32.7617 0.886708 30.5896 -0.556147 28.6038 0.235096Z" fill="#547147"/>
<path opacity="0.39" d="M25.6405 1.01086C17.5419 2.0038 11.1499 10.242 10.731 20.4506C12.903 11.2195 19.0933 6.72023 20.1793 5.99104C21.7308 3.88106 23.577 2.17446 25.6405 1.01086Z" fill="#404936"/>
<path opacity="0.39" d="M38.7192 6.14616C42.7065 5.19977 45.1888 6.8288 46.7868 8.48886C45.0181 5.21529 42.5824 2.60884 39.7587 1.01084C39.2157 0.716059 38.6727 0.452311 38.0986 0.219593C36.1128 -0.57165 33.9407 0.871205 33.9407 3.01222V13.4535C34.5148 10.3351 35.8025 6.84431 38.7192 6.14616Z" fill="#547147"/>
<g opacity="0.39">
<path d="M50.2 14.8189L50.2155 14.8499C50.2155 14.8499 50.2 14.7723 50.1535 14.6172C50.169 14.6948 50.1845 14.7568 50.2 14.8189Z" fill="#404936"/>
<path d="M48.5555 4.56369C46.3059 2.62437 43.6529 1.36769 40.7827 1.02637C44.9561 3.36907 48.2452 7.91484 49.8742 13.5932C49.3157 11.3901 48.2917 6.93742 48.5555 4.56369Z" fill="#404936"/>
</g>
</svg>
